<svg id="Layer_1" data-name="Layer 1" xmlns="http://www.w3.org/2000/svg" viewBox="0 0 267.46 23.75"><defs><style>.cls-1{fill:#ddc07a;}</style></defs><title>long_dividers5</title><path class="cls-1" d="M267.36,11.65l-71.92-.24-8-4.29a15.83,15.83,0,0,1-8.25,4.05H143.8a39.69,39.69,0,0,1-6.88-3.77c2.63-1.6,4.47-3,4.47-3s7.79,5.21,26.5,5.5c8,.12,14.18-2,14.6-4.08.77-3.83-5.19-2.67-5.19-2.67s2.76.45,2.13,2.5c-.5,1.6-4,2-7.17,2.37C167,8.64,155.48,8,150,5.46A39,39,0,0,1,141.27,0s-3,3-6.39,5.79C131.47,3,128.49,0,128.49,0a39,39,0,0,1-8.71,5.46c-5.5,2.58-17,3.18-22.29,2.62-3.19-.34-6.67-.77-7.17-2.37-.64-2,2.13-2.5,2.13-2.5s-6-1.17-5.19,2.67c.42,2.1,6.56,4.2,14.6,4.08,18.71-.29,26.5-5.5,26.5-5.5s1.84,1.35,4.47,3A39.69,39.69,0,0,1,126,11.18H90.33a15.83,15.83,0,0,1-8.25-4.05L74,11.42H.2v.42H74l8,4.54s2.19-3.1,8.25-3.75h35.79a39.05,39.05,0,0,1,6.73,3.71c-2.63,1.6-4.47,3-4.47,3s-7.79-5.21-26.5-5.5c-8-.12-14.18,2-14.6,4.08-.77,3.83,5.19,2.67,5.19,2.67s-2.76-.45-2.12-2.5c.5-1.6,4-2,7.17-2.37,5.31-.56,16.79,0,22.29,2.63a39,39,0,0,1,8.71,5.46s3-3,6.39-5.79c3.41,2.83,6.39,5.79,6.39,5.79A39,39,0,0,1,150,18.29c5.5-2.58,17-3.18,22.29-2.62,3.19.34,6.67.77,7.17,2.38.64,2-2.12,2.5-2.12,2.5s6,1.17,5.19-2.67c-.42-2.1-6.56-4.2-14.6-4.08-18.71.29-26.5,5.5-26.5,5.5s-1.84-1.35-4.47-3a39,39,0,0,1,6.73-3.71h35.51c6.06.65,8.25,3.75,8.25,3.75l8-4.51,71.91.24ZM134.88,15.15c-1.62-.91-6.22-3-6.2-3.27s4.54-2.34,6.2-3.27c1.66.93,6.22,3,6.22,3.27S136.5,14.24,134.88,15.15Z"/></svg>